<?xml version="1.0" encoding="utf-8"?>
<!-- Generator: Adobe Illustrator 24.1.2, SVG Export Plug-In . SVG Version: 6.00 Build 0)  -->
<svg version="1.1" id="Layer_1" xmlns="http://www.w3.org/2000/svg" xmlns:xlink="http://www.w3.org/1999/xlink" x="0px" y="0px"
	 viewBox="0 0 640 512" style="enable-background:new 0 0 640 512;" xml:space="preserve">
<style type="text/css">
	.st0{fill:#64748B;}
</style>
<path class="st0" d="M535,7c9.4-9.4,24.6-9.4,33.1,0l64,64c5.4,4.5,7.9,10.6,7.9,17c0,6.4-2.5,12.5-7.9,16.1l-64,64
	c-8.5,10.2-23.7,10.2-33.1,0c-9.3-8.5-9.3-23.7,0-33.1l23.1-23.9H384c-13.3,0-24-9.9-24-23.1c0-13.3,10.7-24,24-24l174.1-0.9L535,41
	C525.7,31.6,525.7,16.4,535,7L535,7z M104.1,376.1L81.9,400l173.2-0.9c14.2,0,24,11.6,24,24c0,14.1-9.8,24-24,24L81.9,448l22.2,23
	c10.2,9.4,10.2,24.6,0,33.1c-8.5,10.2-23.7,10.2-33.1,0l-64-64c-4.5-3.6-7-9.7-7-17c0-5.5,2.5-11.6,7-16.1l64-64
	c9.4-9.3,24.6-9.3,33.1,0C114.3,352.4,114.3,367.6,104.1,376.1L104.1,376.1z M95.1,64h242.8c-3.8,7.2-5.9,15.3-5.9,23.1
	c0,29.6,23.3,52,52,52h97.1c3.3,18.4,13.8,33.4,28.3,42.8c1.7,2.4,3.7,4.7,5.8,6.9c20.3,20.3,53.3,20.3,73.6,0l19.2-19.3V384
	c0,35.3-28.7,64-64,64H302.1c3.8-7.2,5-15.3,5-24.9c0-27.8-22.4-52-52-52l-96.2,0.9c-3.4-17.5-13.8-32.5-28.3-41.9
	c-1.7-2.4-3.7-4.7-5.8-6.9c-20.3-20.3-53.3-20.3-73.6,0l-20.1,19.3V128C31.1,92.6,60.7,64,95.1,64L95.1,64z M95.1,192
	c36.2,0,64-28.7,64-64h-64V192z M544,384v-64c-35.3,0-64,28.7-64,64H544z M319.1,352c53.9,0,96.9-43,96.9-96c0-53.9-43-96-96.9-96
	c-53,0-96,42.1-96,96C223.1,309,266.1,352,319.1,352z"/>
</svg>
