<?xml version="1.0" encoding="utf-8"?>
<!-- Generator: Adobe Illustrator 24.1.2, SVG Export Plug-In . SVG Version: 6.00 Build 0)  -->
<svg version="1.1" id="Layer_1" xmlns="http://www.w3.org/2000/svg" xmlns:xlink="http://www.w3.org/1999/xlink" x="0px" y="0px"
	 viewBox="0 0 576 512" style="enable-background:new 0 0 576 512;" xml:space="preserve">
<style type="text/css">
	.st0{fill:#64748B;}
</style>
<path class="st0" d="M96,304.1c0-12.2,5-23.8,13.6-32l72.1-68.1c1.6-1.6,3.8-2.3,5.6-3.6C177.1,176.8,155,160,128,160H64
	c-35.3,0-64,28.7-64,64v96c0,17.7,14.3,32,31.1,32L32,480c0,17.7,14.3,32,32,32h64c17.7,0,32-14.3,32-32v-96.4l-50.4-47.5
	C100.1,327.9,96,316.2,96,304.1z M480,128c35.4,0,64-28.6,64-64S515.4,0,480,0s-64,28.6-64,64S444.6,128,480,128z M96,128
	c35.4,0,64-28.6,64-64S131.4,0,96,0S32,28.6,32,64S60.6,128,96,128z M444.4,295.3l-72.1-68c-3.5-3.3-8.6-4.2-13-2.3
	c-4.4,1.9-7.3,6.2-7.3,11v36H224v-36c0-4.8-2.9-9.1-7.3-11c-4.4-1.9-9.5-1.9-13,2.3l-72.1,68c-4.8,4.5-4.8,12.9,0,17.5l72.1,68.1
	c3.5,3.3,8.6,4.2,13,2.3c4.4-1.8,7.3-6.2,7.3-11V336h128v36.1c0,4.8,2.9,9.1,7.3,11c4.4,1.9,9.5,1,13-2.3l72.1-68.1
	C449.2,308.3,449.2,299.9,444.4,295.3z M512,160h-64c-26.1,0-50,16.8-59.4,40.4c1.8,1.3,4,2,5.6,3.6l72.1,68.1
	c8.6,8.1,13.6,19.8,13.6,32c0,12.2-5,23.8-13.6,32L416,383.6V480c0,17.7,14.3,32,32,32h64c17.7,0,32-14.3,32-32V352
	c17.7,0,32-14.3,32-32v-96C576,188.7,547.3,160,512,160z"/>
</svg>
