<svg width="21" height="21" viewBox="0 0 21 21" fill="none" xmlns="http://www.w3.org/2000/svg">
<linearGradient id="gradient-vertical" x1="0%" y1="0%" x2="100%" y2="0%">
                <stop offset="0%" stop-color="#F23D2B" />
                <stop offset="100%" stop-color="#9E05DE" />
              </linearGradient>
<path d="M7 18.375H3.5C3.26794 18.375 3.04538 18.2828 2.88128 18.1187C2.71719 17.9546 2.625 17.7321 2.625 17.5V14C2.625 13.7679 2.53281 13.5454 2.36872 13.3813C2.20462 13.2172 1.98206 13.125 1.75 13.125C1.51794 13.125 1.29538 13.2172 1.13128 13.3813C0.967187 13.5454 0.875 13.7679 0.875 14V17.5C0.875 18.1962 1.15156 18.8639 1.64384 19.3562C2.13613 19.8484 2.80381 20.125 3.5 20.125H7C7.23206 20.125 7.45462 20.0328 7.61872 19.8687C7.78281 19.7046 7.875 19.4821 7.875 19.25C7.875 19.0179 7.78281 18.7954 7.61872 18.6313C7.45462 18.4672 7.23206 18.375 7 18.375ZM19.25 13.125C19.0179 13.125 18.7954 13.2172 18.6313 13.3813C18.4672 13.5454 18.375 13.7679 18.375 14V17.5C18.375 17.7321 18.2828 17.9546 18.1187 18.1187C17.9546 18.2828 17.7321 18.375 17.5 18.375H14C13.7679 18.375 13.5454 18.4672 13.3813 18.6313C13.2172 18.7954 13.125 19.0179 13.125 19.25C13.125 19.4821 13.2172 19.7046 13.3813 19.8687C13.5454 20.0328 13.7679 20.125 14 20.125H17.5C18.1962 20.125 18.8639 19.8484 19.3562 19.3562C19.8484 18.8639 20.125 18.1962 20.125 17.5V14C20.125 13.7679 20.0328 13.5454 19.8687 13.3813C19.7046 13.2172 19.4821 13.125 19.25 13.125ZM17.5 0.875H14C13.7679 0.875 13.5454 0.967187 13.3813 1.13128C13.2172 1.29538 13.125 1.51794 13.125 1.75C13.125 1.98206 13.2172 2.20462 13.3813 2.36872C13.5454 2.53281 13.7679 2.625 14 2.625H17.5C17.7321 2.625 17.9546 2.71719 18.1187 2.88128C18.2828 3.04538 18.375 3.26794 18.375 3.5V7C18.375 7.23206 18.4672 7.45462 18.6313 7.61872C18.7954 7.78281 19.0179 7.875 19.25 7.875C19.4821 7.875 19.7046 7.78281 19.8687 7.61872C20.0328 7.45462 20.125 7.23206 20.125 7V3.5C20.125 2.80381 19.8484 2.13613 19.3562 1.64384C18.8639 1.15156 18.1962 0.875 17.5 0.875ZM1.75 7.875C1.98206 7.875 2.20462 7.78281 2.36872 7.61872C2.53281 7.45462 2.625 7.23206 2.625 7V3.5C2.625 3.26794 2.71719 3.04538 2.88128 2.88128C3.04538 2.71719 3.26794 2.625 3.5 2.625H7C7.23206 2.625 7.45462 2.53281 7.61872 2.36872C7.78281 2.20462 7.875 1.98206 7.875 1.75C7.875 1.51794 7.78281 1.29538 7.61872 1.13128C7.45462 0.967187 7.23206 0.875 7 0.875H3.5C2.80381 0.875 2.13613 1.15156 1.64384 1.64384C1.15156 2.13613 0.875 2.80381 0.875 3.5V7C0.875 7.23206 0.967187 7.45462 1.13128 7.61872C1.29538 7.78281 1.51794 7.875 1.75 7.875ZM8.75 4.375H5.25C5.01794 4.375 4.79538 4.46719 4.63128 4.63128C4.46719 4.79538 4.375 5.01794 4.375 5.25V8.75C4.375 8.98206 4.46719 9.20462 4.63128 9.36872C4.79538 9.53281 5.01794 9.625 5.25 9.625H8.75C8.98206 9.625 9.20462 9.53281 9.36872 9.36872C9.53281 9.20462 9.625 8.98206 9.625 8.75V5.25C9.625 5.01794 9.53281 4.79538 9.36872 4.63128C9.20462 4.46719 8.98206 4.375 8.75 4.375ZM7.875 7.875H6.125V6.125H7.875V7.875ZM12.25 9.625H15.75C15.9821 9.625 16.2046 9.53281 16.3687 9.36872C16.5328 9.20462 16.625 8.98206 16.625 8.75V5.25C16.625 5.01794 16.5328 4.79538 16.3687 4.63128C16.2046 4.46719 15.9821 4.375 15.75 4.375H12.25C12.0179 4.375 11.7954 4.46719 11.6313 4.63128C11.4672 4.79538 11.375 5.01794 11.375 5.25V8.75C11.375 8.98206 11.4672 9.20462 11.6313 9.36872C11.7954 9.53281 12.0179 9.625 12.25 9.625ZM13.125 6.125H14.875V7.875H13.125V6.125ZM8.75 11.375H5.25C5.01794 11.375 4.79538 11.4672 4.63128 11.6313C4.46719 11.7954 4.375 12.0179 4.375 12.25V15.75C4.375 15.9821 4.46719 16.2046 4.63128 16.3687C4.79538 16.5328 5.01794 16.625 5.25 16.625H8.75C8.98206 16.625 9.20462 16.5328 9.36872 16.3687C9.53281 16.2046 9.625 15.9821 9.625 15.75V12.25C9.625 12.0179 9.53281 11.7954 9.36872 11.6313C9.20462 11.4672 8.98206 11.375 8.75 11.375ZM7.875 14.875H6.125V13.125H7.875V14.875ZM12.25 14C12.4821 14 12.7046 13.9078 12.8687 13.7437C13.0328 13.5796 13.125 13.3571 13.125 13.125C13.3571 13.125 13.5796 13.0328 13.7437 12.8687C13.9078 12.7046 14 12.4821 14 12.25C14 12.0179 13.9078 11.7954 13.7437 11.6313C13.5796 11.4672 13.3571 11.375 13.125 11.375H12.25C12.0179 11.375 11.7954 11.4672 11.6313 11.6313C11.4672 11.7954 11.375 12.0179 11.375 12.25V13.125C11.375 13.3571 11.4672 13.5796 11.6313 13.7437C11.7954 13.9078 12.0179 14 12.25 14ZM15.75 11.375C15.5179 11.375 15.2954 11.4672 15.1313 11.6313C14.9672 11.7954 14.875 12.0179 14.875 12.25V14.875C14.6429 14.875 14.4204 14.9672 14.2563 15.1313C14.0922 15.2954 14 15.5179 14 15.75C14 15.9821 14.0922 16.2046 14.2563 16.3687C14.4204 16.5328 14.6429 16.625 14.875 16.625H15.75C15.9821 16.625 16.2046 16.5328 16.3687 16.3687C16.5328 16.2046 16.625 15.9821 16.625 15.75V12.25C16.625 12.0179 16.5328 11.7954 16.3687 11.6313C16.2046 11.4672 15.9821 11.375 15.75 11.375ZM12.25 14.875C12.0769 14.875 11.9078 14.9263 11.7639 15.0225C11.62 15.1186 11.5078 15.2553 11.4416 15.4152C11.3754 15.575 11.3581 15.751 11.3918 15.9207C11.4256 16.0904 11.5089 16.2463 11.6313 16.3687C11.7537 16.4911 11.9096 16.5744 12.0793 16.6082C12.249 16.6419 12.425 16.6246 12.5848 16.5584C12.7447 16.4922 12.8814 16.38 12.9775 16.2361C13.0737 16.0922 13.125 15.9231 13.125 15.75C13.125 15.5179 13.0328 15.2954 12.8687 15.1313C12.7046 14.9672 12.4821 14.875 12.25 14.875Z" fill="url(#gradient-vertical)"/>
</svg>
