<?xml version="1.0" encoding="utf-8"?>
<!-- Generator: Adobe Illustrator 24.1.2, SVG Export Plug-In . SVG Version: 6.00 Build 0)  -->
<svg version="1.1" id="Layer_1" xmlns="http://www.w3.org/2000/svg" xmlns:xlink="http://www.w3.org/1999/xlink" x="0px" y="0px"
	 viewBox="0 0 448 512" style="enable-background:new 0 0 448 512;" xml:space="preserve">
<style type="text/css">
	.st0{fill:#64748B;}
</style>
<path class="st0" d="M384,32c35.3,0,64,28.7,64,64v320c0,35.3-28.7,64-64,64H64c-35.3,0-64-28.7-64-64V96c0-35.3,28.6-64,64-64H384z
	 M339.8,211.8c10.9-10.9,10.9-28.7,0-39.6c-10.9-10.9-28.7-10.9-39.6,0L192,280.4l-44.2-44.2c-10.9-10.9-28.7-10.9-39.6,0
	c-10.9,10.9-10.9,28.7,0,39.6l64,64c10.9,10.9,28.7,10.9,39.6,0L339.8,211.8z"/>
</svg>
